<svg width="1080" height="452" viewBox="0 0 1080 452" fill="none" xmlns="http://www.w3.org/2000/svg">
<rect width="1080" height="452" fill="white"/>
<rect x="160" y="120" width="160" height="160" rx="40" fill="#4281FF"/>
<rect x="460" y="120" width="160" height="160" rx="40" fill="#FF9682"/>
<rect x="760" y="120" width="160" height="160" rx="40" fill="#FFD562"/>
<path d="M188.448 325L192.028 303.182H194.158L190.579 325H188.448ZM178.519 318.949L178.86 316.818H195.138L194.798 318.949H178.519ZM180.778 325L184.357 303.182H186.488L182.908 325H180.778ZM179.798 311.364L180.138 309.233H196.417L196.076 311.364H179.798ZM198.681 320.526V318.352L208.269 303.182H209.846V306.548H208.78L201.536 318.011V318.182H214.448V320.526H198.681ZM208.951 325V319.865V318.853V303.182H211.465V325H208.951ZM218.44 325V323.082L225.642 315.199C226.487 314.276 227.183 313.473 227.73 312.791C228.277 312.102 228.682 311.456 228.944 310.852C229.214 310.241 229.349 309.602 229.349 308.935C229.349 308.168 229.165 307.504 228.795 306.942C228.433 306.381 227.936 305.948 227.304 305.643C226.672 305.337 225.961 305.185 225.173 305.185C224.335 305.185 223.604 305.359 222.979 305.707C222.361 306.048 221.881 306.527 221.54 307.145C221.206 307.763 221.04 308.487 221.04 309.318H218.525C218.525 308.04 218.82 306.918 219.41 305.952C219.999 304.986 220.802 304.233 221.817 303.693C222.84 303.153 223.987 302.884 225.258 302.884C226.537 302.884 227.67 303.153 228.657 303.693C229.644 304.233 230.418 304.961 230.979 305.877C231.54 306.793 231.821 307.812 231.821 308.935C231.821 309.737 231.675 310.522 231.384 311.289C231.1 312.049 230.603 312.898 229.893 313.835C229.189 314.766 228.213 315.902 226.963 317.244L222.062 322.486V322.656H232.204V325H218.44ZM243.593 325.298C242.13 325.298 240.837 325.039 239.715 324.521C238.6 323.995 237.73 323.274 237.105 322.358C236.48 321.435 236.171 320.384 236.178 319.205C236.171 318.281 236.352 317.429 236.721 316.648C237.091 315.859 237.595 315.202 238.234 314.677C238.881 314.144 239.601 313.807 240.397 313.665V313.537C239.353 313.267 238.522 312.681 237.904 311.779C237.286 310.87 236.981 309.837 236.988 308.679C236.981 307.571 237.261 306.58 237.829 305.707C238.398 304.833 239.179 304.144 240.173 303.64C241.175 303.136 242.314 302.884 243.593 302.884C244.857 302.884 245.986 303.136 246.981 303.64C247.975 304.144 248.756 304.833 249.324 305.707C249.9 306.58 250.191 307.571 250.198 308.679C250.191 309.837 249.875 310.87 249.25 311.779C248.632 312.681 247.812 313.267 246.789 313.537V313.665C247.577 313.807 248.287 314.144 248.92 314.677C249.552 315.202 250.056 315.859 250.432 316.648C250.809 317.429 251.001 318.281 251.008 319.205C251.001 320.384 250.681 321.435 250.049 322.358C249.424 323.274 248.554 323.995 247.439 324.521C246.331 325.039 245.049 325.298 243.593 325.298ZM243.593 322.955C244.58 322.955 245.432 322.795 246.15 322.475C246.867 322.156 247.421 321.705 247.812 321.122C248.202 320.54 248.401 319.858 248.408 319.077C248.401 318.253 248.188 317.525 247.769 316.893C247.35 316.261 246.778 315.763 246.054 315.401C245.336 315.039 244.516 314.858 243.593 314.858C242.662 314.858 241.831 315.039 241.1 315.401C240.376 315.763 239.804 316.261 239.385 316.893C238.973 317.525 238.77 318.253 238.778 319.077C238.77 319.858 238.959 320.54 239.342 321.122C239.733 321.705 240.29 322.156 241.015 322.475C241.739 322.795 242.599 322.955 243.593 322.955ZM243.593 312.599C244.374 312.599 245.067 312.443 245.67 312.131C246.281 311.818 246.76 311.381 247.108 310.82C247.456 310.259 247.634 309.602 247.641 308.849C247.634 308.111 247.46 307.468 247.119 306.921C246.778 306.367 246.306 305.941 245.702 305.643C245.099 305.337 244.395 305.185 243.593 305.185C242.776 305.185 242.062 305.337 241.452 305.643C240.841 305.941 240.368 306.367 240.035 306.921C239.701 307.468 239.537 308.111 239.545 308.849C239.537 309.602 239.704 310.259 240.045 310.82C240.393 311.381 240.873 311.818 241.483 312.131C242.094 312.443 242.797 312.599 243.593 312.599ZM262.761 303.182V325H260.119V305.952H259.991L254.664 309.489V306.804L260.119 303.182H262.761ZM269.419 325V303.182H282.502V305.526H272.061V312.898H281.522V315.241H272.061V325H269.419ZM287.027 325V303.182H300.109V305.526H289.669V312.898H299.129V315.241H289.669V325H287.027Z" fill="#1B3466"/>
<path d="M485.824 325L489.404 303.182H491.534L487.955 325H485.824ZM475.895 318.949L476.236 316.818H492.514L492.174 318.949H475.895ZM478.154 325L481.733 303.182H483.864L480.284 325H478.154ZM477.174 311.364L477.514 309.233H493.793L493.452 311.364H477.174ZM496.952 325V303.182H510.034V305.526H499.594V312.898H509.054V315.241H499.594V325H496.952ZM514.559 325V303.182H527.641V305.526H517.201V312.898H526.661V315.241H517.201V325H514.559ZM538.729 302.884C539.624 302.891 540.519 303.061 541.414 303.395C542.309 303.729 543.125 304.283 543.864 305.057C544.603 305.824 545.196 306.871 545.643 308.2C546.09 309.528 546.314 311.193 546.314 313.196C546.314 315.135 546.13 316.857 545.76 318.363C545.398 319.862 544.872 321.126 544.184 322.156C543.502 323.185 542.671 323.967 541.691 324.499C540.718 325.032 539.617 325.298 538.388 325.298C537.166 325.298 536.076 325.057 535.117 324.574C534.166 324.084 533.384 323.406 532.774 322.539C532.17 321.665 531.783 320.653 531.612 319.503H534.212C534.446 320.504 534.911 321.332 535.608 321.985C536.311 322.631 537.237 322.955 538.388 322.955C540.071 322.955 541.399 322.219 542.372 320.749C543.353 319.279 543.843 317.202 543.843 314.517H543.672C543.274 315.114 542.802 315.629 542.255 316.062C541.708 316.495 541.101 316.829 540.434 317.063C539.766 317.298 539.056 317.415 538.303 317.415C537.053 317.415 535.906 317.106 534.862 316.488C533.825 315.863 532.994 315.007 532.369 313.92C531.751 312.827 531.442 311.577 531.442 310.17C531.442 308.835 531.74 307.614 532.337 306.506C532.941 305.391 533.786 304.503 534.872 303.842C535.966 303.182 537.252 302.862 538.729 302.884ZM538.729 305.227C537.834 305.227 537.028 305.451 536.311 305.898C535.6 306.339 535.036 306.935 534.617 307.688C534.205 308.434 533.999 309.261 533.999 310.17C533.999 311.08 534.198 311.907 534.595 312.653C535 313.391 535.551 313.981 536.247 314.421C536.95 314.854 537.749 315.071 538.644 315.071C539.318 315.071 539.947 314.94 540.529 314.677C541.112 314.407 541.62 314.041 542.053 313.58C542.493 313.111 542.838 312.582 543.086 311.992C543.335 311.396 543.459 310.774 543.459 310.128C543.459 309.276 543.253 308.477 542.841 307.731C542.436 306.985 541.875 306.381 541.158 305.92C540.448 305.458 539.638 305.227 538.729 305.227ZM557.748 325.298C556.853 325.284 555.958 325.114 555.063 324.787C554.168 324.46 553.352 323.91 552.613 323.136C551.874 322.354 551.281 321.3 550.834 319.972C550.386 318.636 550.163 316.96 550.163 314.943C550.163 313.011 550.344 311.3 550.706 309.808C551.068 308.31 551.594 307.049 552.283 306.026C552.972 304.996 553.803 304.215 554.776 303.683C555.756 303.15 556.86 302.884 558.089 302.884C559.31 302.884 560.397 303.129 561.349 303.619C562.308 304.102 563.089 304.776 563.693 305.643C564.296 306.509 564.687 307.507 564.864 308.636H562.265C562.024 307.656 561.555 306.843 560.859 306.197C560.163 305.55 559.239 305.227 558.089 305.227C556.399 305.227 555.067 305.962 554.094 307.433C553.128 308.903 552.641 310.966 552.634 313.622H552.805C553.203 313.018 553.675 312.504 554.222 312.077C554.776 311.644 555.386 311.31 556.054 311.076C556.722 310.842 557.428 310.724 558.174 310.724C559.424 310.724 560.568 311.037 561.604 311.662C562.641 312.28 563.472 313.136 564.097 314.229C564.722 315.316 565.035 316.562 565.035 317.969C565.035 319.318 564.733 320.554 564.129 321.676C563.526 322.791 562.677 323.679 561.583 324.339C560.497 324.993 559.218 325.312 557.748 325.298ZM557.748 322.955C558.643 322.955 559.445 322.731 560.156 322.283C560.873 321.836 561.438 321.236 561.85 320.483C562.269 319.73 562.478 318.892 562.478 317.969C562.478 317.067 562.276 316.246 561.871 315.508C561.473 314.762 560.923 314.169 560.22 313.729C559.524 313.288 558.728 313.068 557.833 313.068C557.158 313.068 556.53 313.203 555.948 313.473C555.365 313.736 554.854 314.098 554.413 314.56C553.98 315.021 553.639 315.55 553.391 316.147C553.142 316.737 553.018 317.358 553.018 318.011C553.018 318.878 553.22 319.687 553.625 320.44C554.037 321.193 554.598 321.8 555.308 322.262C556.026 322.724 556.839 322.955 557.748 322.955ZM576.213 325.298C574.75 325.298 573.457 325.039 572.335 324.521C571.22 323.995 570.35 323.274 569.725 322.358C569.1 321.435 568.791 320.384 568.798 319.205C568.791 318.281 568.972 317.429 569.342 316.648C569.711 315.859 570.215 315.202 570.854 314.677C571.501 314.144 572.222 313.807 573.017 313.665V313.537C571.973 313.267 571.142 312.681 570.524 311.779C569.906 310.87 569.601 309.837 569.608 308.679C569.601 307.571 569.881 306.58 570.449 305.707C571.018 304.833 571.799 304.144 572.793 303.64C573.795 303.136 574.935 302.884 576.213 302.884C577.477 302.884 578.606 303.136 579.601 303.64C580.595 304.144 581.376 304.833 581.945 305.707C582.52 306.58 582.811 307.571 582.818 308.679C582.811 309.837 582.495 310.87 581.87 311.779C581.252 312.681 580.432 313.267 579.409 313.537V313.665C580.197 313.807 580.908 314.144 581.54 314.677C582.172 315.202 582.676 315.859 583.052 316.648C583.429 317.429 583.621 318.281 583.628 319.205C583.621 320.384 583.301 321.435 582.669 322.358C582.044 323.274 581.174 323.995 580.059 324.521C578.951 325.039 577.669 325.298 576.213 325.298ZM576.213 322.955C577.2 322.955 578.052 322.795 578.77 322.475C579.487 322.156 580.041 321.705 580.432 321.122C580.822 320.54 581.021 319.858 581.028 319.077C581.021 318.253 580.808 317.525 580.389 316.893C579.97 316.261 579.398 315.763 578.674 315.401C577.957 315.039 577.136 314.858 576.213 314.858C575.283 314.858 574.452 315.039 573.72 315.401C572.996 315.763 572.424 316.261 572.005 316.893C571.593 317.525 571.391 318.253 571.398 319.077C571.391 319.858 571.579 320.54 571.962 321.122C572.353 321.705 572.91 322.156 573.635 322.475C574.359 322.795 575.219 322.955 576.213 322.955ZM576.213 312.599C576.994 312.599 577.687 312.443 578.29 312.131C578.901 311.818 579.381 311.381 579.729 310.82C580.077 310.259 580.254 309.602 580.261 308.849C580.254 308.111 580.08 307.468 579.739 306.921C579.398 306.367 578.926 305.941 578.322 305.643C577.719 305.337 577.016 305.185 576.213 305.185C575.396 305.185 574.682 305.337 574.072 305.643C573.461 305.941 572.989 306.367 572.655 306.921C572.321 307.468 572.158 308.111 572.165 308.849C572.158 309.602 572.324 310.259 572.665 310.82C573.013 311.381 573.493 311.818 574.104 312.131C574.714 312.443 575.418 312.599 576.213 312.599ZM587.711 325V323.082L594.912 315.199C595.758 314.276 596.454 313.473 597 312.791C597.547 312.102 597.952 311.456 598.215 310.852C598.485 310.241 598.62 309.602 598.62 308.935C598.62 308.168 598.435 307.504 598.066 306.942C597.704 306.381 597.206 305.948 596.574 305.643C595.942 305.337 595.232 305.185 594.444 305.185C593.606 305.185 592.874 305.359 592.249 305.707C591.631 306.048 591.152 306.527 590.811 307.145C590.477 307.763 590.31 308.487 590.31 309.318H587.796C587.796 308.04 588.091 306.918 588.68 305.952C589.27 304.986 590.072 304.233 591.088 303.693C592.111 303.153 593.258 302.884 594.529 302.884C595.807 302.884 596.94 303.153 597.927 303.693C598.915 304.233 599.689 304.961 600.25 305.877C600.811 306.793 601.091 307.812 601.091 308.935C601.091 309.737 600.946 310.522 600.655 311.289C600.37 312.049 599.873 312.898 599.163 313.835C598.46 314.766 597.483 315.902 596.233 317.244L591.333 322.486V322.656H601.475V325H587.711Z" fill="#1B3466"/>
<path d="M784.52 325L788.1 303.182H790.231L786.651 325H784.52ZM774.591 318.949L774.932 316.818H791.211L790.87 318.949H774.591ZM776.85 325L780.43 303.182H782.56L778.981 325H776.85ZM775.87 311.364L776.211 309.233H792.489L792.148 311.364H775.87ZM795.648 325V303.182H808.73V305.526H798.29V312.898H807.75V315.241H798.29V325H795.648ZM813.255 325V303.182H826.338V305.526H815.897V312.898H825.358V315.241H815.897V325H813.255ZM837.596 325H830.863V303.182H837.894C840.01 303.182 841.822 303.619 843.327 304.492C844.833 305.359 845.987 306.605 846.79 308.232C847.592 309.851 847.993 311.79 847.993 314.048C847.993 316.321 847.589 318.278 846.779 319.918C845.969 321.552 844.79 322.809 843.242 323.69C841.694 324.563 839.812 325 837.596 325ZM833.505 322.656H837.425C839.229 322.656 840.724 322.308 841.91 321.612C843.096 320.916 843.981 319.925 844.563 318.64C845.145 317.354 845.437 315.824 845.437 314.048C845.437 312.287 845.149 310.771 844.574 309.499C843.998 308.221 843.139 307.241 841.996 306.559C840.852 305.87 839.428 305.526 837.724 305.526H833.505V322.656ZM858.86 325.298C857.61 325.298 856.484 325.05 855.483 324.553C854.481 324.055 853.679 323.374 853.075 322.507C852.471 321.641 852.141 320.653 852.084 319.545H854.641C854.741 320.533 855.188 321.349 855.983 321.996C856.786 322.635 857.745 322.955 858.86 322.955C859.755 322.955 860.55 322.745 861.246 322.326C861.949 321.907 862.5 321.332 862.898 320.6C863.302 319.862 863.505 319.027 863.505 318.097C863.505 317.145 863.295 316.296 862.876 315.55C862.464 314.798 861.896 314.205 861.172 313.771C860.447 313.338 859.62 313.118 858.689 313.111C858.022 313.104 857.336 313.207 856.633 313.42C855.93 313.626 855.351 313.892 854.897 314.219L852.425 313.92L853.746 303.182H865.081V305.526H855.962L855.195 311.96H855.323C855.77 311.605 856.331 311.31 857.006 311.076C857.681 310.842 858.384 310.724 859.116 310.724C860.451 310.724 861.64 311.044 862.684 311.683C863.736 312.315 864.559 313.182 865.156 314.283C865.76 315.384 866.062 316.641 866.062 318.054C866.062 319.446 865.749 320.689 865.124 321.783C864.506 322.869 863.654 323.729 862.567 324.361C861.481 324.986 860.245 325.298 858.86 325.298ZM877.538 325.298C876.643 325.284 875.748 325.114 874.853 324.787C873.958 324.46 873.142 323.91 872.403 323.136C871.664 322.354 871.071 321.3 870.624 319.972C870.176 318.636 869.953 316.96 869.953 314.943C869.953 313.011 870.134 311.3 870.496 309.808C870.858 308.31 871.384 307.049 872.073 306.026C872.762 304.996 873.593 304.215 874.566 303.683C875.546 303.15 876.65 302.884 877.879 302.884C879.1 302.884 880.187 303.129 881.139 303.619C882.098 304.102 882.879 304.776 883.483 305.643C884.086 306.509 884.477 307.507 884.654 308.636H882.055C881.814 307.656 881.345 306.843 880.649 306.197C879.953 305.55 879.029 305.227 877.879 305.227C876.189 305.227 874.857 305.962 873.884 307.433C872.918 308.903 872.431 310.966 872.424 313.622H872.595C872.993 313.018 873.465 312.504 874.012 312.077C874.566 311.644 875.176 311.31 875.844 311.076C876.512 310.842 877.218 310.724 877.964 310.724C879.214 310.724 880.358 311.037 881.395 311.662C882.431 312.28 883.262 313.136 883.887 314.229C884.512 315.316 884.825 316.562 884.825 317.969C884.825 319.318 884.523 320.554 883.919 321.676C883.316 322.791 882.467 323.679 881.373 324.339C880.287 324.993 879.008 325.312 877.538 325.298ZM877.538 322.955C878.433 322.955 879.235 322.731 879.946 322.283C880.663 321.836 881.228 321.236 881.64 320.483C882.059 319.73 882.268 318.892 882.268 317.969C882.268 317.067 882.066 316.246 881.661 315.508C881.263 314.762 880.713 314.169 880.01 313.729C879.314 313.288 878.518 313.068 877.623 313.068C876.949 313.068 876.32 313.203 875.738 313.473C875.155 313.736 874.644 314.098 874.203 314.56C873.77 315.021 873.429 315.55 873.181 316.147C872.932 316.737 872.808 317.358 872.808 318.011C872.808 318.878 873.01 319.687 873.415 320.44C873.827 321.193 874.388 321.8 875.098 322.262C875.816 322.724 876.629 322.955 877.538 322.955ZM889.014 325V323.082L896.216 315.199C897.061 314.276 897.757 313.473 898.304 312.791C898.851 312.102 899.256 311.456 899.519 310.852C899.789 310.241 899.923 309.602 899.923 308.935C899.923 308.168 899.739 307.504 899.369 306.942C899.007 306.381 898.51 305.948 897.878 305.643C897.246 305.337 896.536 305.185 895.747 305.185C894.909 305.185 894.178 305.359 893.553 305.707C892.935 306.048 892.455 306.527 892.115 307.145C891.781 307.763 891.614 308.487 891.614 309.318H889.1C889.1 308.04 889.394 306.918 889.984 305.952C890.573 304.986 891.376 304.233 892.392 303.693C893.414 303.153 894.561 302.884 895.833 302.884C897.111 302.884 898.244 303.153 899.231 303.693C900.218 304.233 900.992 304.961 901.553 305.877C902.115 306.793 902.395 307.812 902.395 308.935C902.395 309.737 902.249 310.522 901.958 311.289C901.674 312.049 901.177 312.898 900.467 313.835C899.764 314.766 898.787 315.902 897.537 317.244L892.637 322.486V322.656H902.779V325H889.014Z" fill="#1B3466"/>
</svg>
