<svg width="600" height="434" viewBox="0 0 600 434" fill="none" xmlns="http://www.w3.org/2000/svg">
<path d="M4 138.143L35.9981 186.032V353.203L4 401.092V429.62H180.001V401.092L148.003 353.203V186.032L180.001 138.143V109.615H4V138.143Z" fill="#4281FF"/>
<path d="M211.999 138.143L243.997 186.032V353.203L211.999 401.092V429.62H388.001V401.092L356.003 353.203V186.032L388.001 138.143V109.615H211.999V138.143Z" fill="#4281FF"/>
<path d="M596 138.143V109.615H419.999V138.143L451.997 186.032V353.203L419.999 401.092V429.62H596V401.092L564.002 353.203V186.032L596 138.143Z" fill="#4281FF"/>
<path d="M596 4H4V77.5931H596V4Z" fill="#4281FF"/>
</svg>
