<svg width="800" height="236" viewBox="0 0 800 236" fill="none" xmlns="http://www.w3.org/2000/svg">
<g clip-path="url(#clip0_12_212)">
<path d="M404.207 100.645H385.493V0H411.296L438.161 76.2048L464.882 0H490.686V100.645H472.129V25.2007L446.024 100.659H430.181L404.233 25.2007V100.659L404.207 100.645Z" fill="white"/>
<path d="M564.296 25.2007H580.887V100.659H564.296V91.4589C561.478 94.7876 557.521 97.5658 552.449 99.833C547.364 102.1 542.516 103.227 537.889 103.227C527.327 103.227 518.573 99.3612 511.627 91.6031C504.682 83.8581 501.209 74.1605 501.209 62.4841C501.209 50.8076 504.813 41.7653 511.994 34.112C519.189 26.4719 528.166 22.6453 538.925 22.6453C543.656 22.6453 548.36 23.7854 553.039 26.0394C557.717 28.2935 561.465 31.2027 564.283 34.7148V25.2007H564.296ZM541.742 86.7805C548.164 86.7805 553.445 84.5003 557.612 79.9398C561.78 75.3793 563.863 69.6131 563.863 62.6282C563.863 55.6433 561.78 50.231 557.612 45.7623C553.458 41.3066 548.164 39.0788 541.742 39.0788C535.321 39.0788 530.144 41.4114 525.872 46.0768C521.613 50.729 519.49 56.5082 519.49 63.3883C519.49 70.2684 521.639 75.5234 525.951 80.0184C530.262 84.5265 535.531 86.7674 541.742 86.7674V86.7805Z" fill="white"/>
<path d="M620.581 100.645H602.313V41.6604H585.028V25.2007H602.313V0H620.581V25.2007H639.675V41.6604H620.581V100.659V100.645Z" fill="white"/>
<path d="M663.434 100.645H645.179V0H663.434V30.3378C669.056 25.2007 675.517 22.6452 682.842 22.6452C688.15 22.6452 693.274 24.1785 698.188 27.2581C703.103 30.3247 706.641 34.1251 708.79 38.6463C710.939 43.1674 712.027 49.6544 712.027 58.107V100.659H693.772V62.0909C693.772 46.7582 688.687 39.0918 678.531 39.0918C668.375 39.0918 663.447 46.7975 663.447 62.2481V100.659L663.434 100.645Z" fill="white"/>
<path d="M800 61.8811C800 64.489 799.646 67.5162 798.939 70.9366H740.399C741.605 75.5102 744.095 79.2844 747.869 82.2854C751.643 85.2864 755.837 86.7803 760.463 86.7803C767.71 86.7803 773.345 83.4648 777.368 76.8206H797.287C794.968 84.4608 790.394 90.7773 783.553 95.7703C776.713 100.75 769.217 103.24 761.065 103.24C749.992 103.24 740.596 99.3479 732.851 91.5505C725.106 83.7531 721.24 74.2652 721.24 63.0998C721.24 51.9345 725.106 42.1976 732.851 34.2036C740.596 26.2096 749.953 22.2126 760.921 22.2126C771.89 22.2126 780.762 26.1048 788.455 33.9022C796.147 41.6996 800 51.0303 800 61.9073V61.8811ZM739.783 56.4426H782.335C781.024 50.9516 778.482 46.627 774.708 43.4294C770.933 40.2318 766.425 38.6462 761.196 38.6462C755.968 38.6462 751.394 40.2712 747.463 43.5212C743.544 46.7581 740.976 51.0827 739.77 56.4557L739.783 56.4426Z" fill="white"/>
<path d="M554.205 194.332C554.205 196.94 553.851 199.967 553.144 203.388H494.604C495.81 207.961 498.3 211.735 502.074 214.736C505.848 217.737 510.042 219.231 514.668 219.231C521.915 219.231 527.55 215.916 531.573 209.272H551.492C549.173 216.912 544.599 223.228 537.758 228.221C530.918 233.201 523.422 235.691 515.27 235.691C504.197 235.691 494.801 231.799 487.056 224.002C479.311 216.204 475.445 206.716 475.445 195.551C475.445 184.386 479.311 174.649 487.056 166.655C494.801 158.661 504.158 154.664 515.126 154.664C526.095 154.664 534.967 158.556 542.66 166.353C550.352 174.151 554.205 183.481 554.205 194.358V194.332ZM494.001 188.894H536.553C535.242 183.403 532.7 179.078 528.926 175.88C525.152 172.683 520.643 171.097 515.415 171.097C510.186 171.097 505.612 172.722 501.681 175.972C497.762 179.209 495.194 183.534 493.988 188.907L494.001 188.894Z" fill="white"/>
<path d="M408.741 233.122H385.493V132.477H408.426C426.629 132.477 440.363 136.395 449.628 144.245C454.66 148.57 458.684 154.244 461.698 161.295C464.712 168.332 466.219 175.579 466.219 183.023C466.219 193.677 463.428 203.296 457.845 211.84C452.275 220.398 444.95 226.229 435.894 229.348C428.647 231.864 419.592 233.136 408.728 233.136L408.741 233.122ZM404.207 149.828V215.772H408.125C418.779 215.772 426.944 214.107 432.566 210.779C442.63 204.829 447.649 195.603 447.649 183.101C447.649 176.339 445.841 170.127 442.224 164.479C438.594 158.844 433.876 154.913 428.031 152.685C422.999 150.771 416.211 149.815 407.666 149.815H404.194L404.207 149.828Z" fill="white"/>
<path d="M582.276 233.123H564.021V157.665H580.611V164.152C585.133 158.11 591.829 155.096 600.688 155.096C609.547 155.096 617.135 159.08 622.272 167.022C627.802 159.08 635.901 155.096 646.568 155.096C656.331 155.096 663.867 158.058 669.2 164.008C674.534 169.931 677.194 178.331 677.194 189.208V233.123H658.926V191.226C658.926 178.108 654.248 171.556 644.891 171.556C634.734 171.556 629.663 179.511 629.663 195.446V233.123H611.395V191.226C611.395 178.108 606.441 171.556 596.534 171.556C591.423 171.556 587.78 173.417 585.565 177.139C583.363 180.873 582.263 186.98 582.263 195.446V233.123H582.276Z" fill="white"/>
<path d="M758.929 219.231C765.757 219.231 771.327 215.667 775.638 208.525H795.964C792.543 217.869 787.21 224.814 779.963 229.335C773.227 233.555 765.98 235.678 758.235 235.678C747.161 235.678 737.713 231.72 729.863 223.753C722.013 215.811 718.095 206.245 718.095 195.079C718.095 183.914 722.013 174.596 729.863 166.786C737.699 158.988 747.109 155.096 758.077 155.096C770.553 155.096 780.867 159.932 789.018 169.59C791.927 173.115 794.247 177.479 795.964 182.721H775.638C771.418 175.265 765.6 171.556 758.169 171.556C751.853 171.556 746.624 173.797 742.522 178.305C738.407 182.826 736.35 188.501 736.35 195.394C736.35 202.287 738.486 207.974 742.758 212.469C747.017 216.977 752.416 219.231 758.929 219.231Z" fill="white"/>
<path d="M708.58 157.665H690.325V233.123H708.58V157.665Z" fill="white"/>
<path d="M699.459 150.025C705.713 150.025 710.782 144.955 710.782 138.702C710.782 132.449 705.713 127.379 699.459 127.379C693.206 127.379 688.137 132.449 688.137 138.702C688.137 144.955 693.206 150.025 699.459 150.025Z" fill="white"/>
<path d="M0 73.4396L17.5212 99.6756V191.2L0 217.436V233.057H96.3732V217.436L78.852 191.2V99.6756L96.3732 73.4396V57.8186H0V73.4396Z" fill="white"/>
<path d="M113.894 73.4396L131.416 99.6756V191.2L113.894 217.436V233.057H210.268V217.436L192.746 191.2V99.6756L210.268 73.4396V57.8186H113.894V73.4396Z" fill="white"/>
<path d="M324.162 73.4396V57.8186H227.789V73.4396L245.31 99.6756V191.2L227.789 217.436V233.057H324.162V217.436L306.641 191.2V99.6756L324.162 73.4396Z" fill="white"/>
<path d="M324.162 0H0V40.2975H324.162V0Z" fill="white"/>
</g>
<defs>
<clipPath id="clip0_12_212">
<rect width="800" height="236" fill="white"/>
</clipPath>
</defs>
</svg>
